<svg xmlns="http://www.w3.org/2000/svg" viewBox="0 0 161.247 60.021"><title>tunglogo</title><g id="Layer_2" data-name="Layer 2"><g id="Layer_1-2" data-name="Layer 1"><g style="opacity:0.9"><path d="M86.047,40.153A19.008,19.008,0,0,1,80.2,54.234a19.95,19.95,0,0,1-28.1,0,19.279,19.279,0,0,1-5.787-14.081V12.291h7.935V40.153a11.855,11.855,0,0,0,20.285,8.353,11.516,11.516,0,0,0,3.58-8.353Z"/><path d="M103.47,40.871,71.73,12.293V24.341l39.678,35.678v-12Z"/><polygon points="111.408 12.293 111.408 48.014 103.47 40.871 103.47 12.293 111.408 12.293"/><path d="M153.312,46.657l7.935,2.625a22.32,22.32,0,0,1-3.819,4.415,24.287,24.287,0,0,1-4.713,3.4,20.675,20.675,0,0,1-5.429,2.148,21.818,21.818,0,0,1-5.967.775,22.887,22.887,0,0,1-16.824-7.04,22.89,22.89,0,0,1-7.041-16.825A22.758,22.758,0,0,1,124.5,19.331a22.57,22.57,0,0,1,16.824-7.04,23.373,23.373,0,0,1,9.308,1.849,24.767,24.767,0,0,1,7.637,5.191l-5.728,5.608a15.841,15.841,0,0,0-27.087,11.217,15.687,15.687,0,0,0,15.87,15.87,16.237,16.237,0,0,0,6.623-1.372A16.633,16.633,0,0,0,153.312,46.657Z"/><polygon points="141.319 32.218 161.247 32.218 153.312 40.153 141.319 40.153 141.319 32.218"/><path d="M39.748,12.291v8H23.877V60.021H15.882V12.291Z"/><rect y="12.291" width="23.865" height="7.988"/><rect y="12.291" width="39.748" height="7.988" transform="translate(39.748 32.57) rotate(180)"/><rect x="46.312" width="25.418" height="7.988"/></g></g></g></svg>