<svg xmlns="http://www.w3.org/2000/svg" viewBox="0 0 153.657 62.05"><title>Asset 9</title><g id="Layer_2" data-name="Layer 2"><g id="Layer_1-2" data-name="Layer 1"><path d="M82.169,41.51a19.651,19.651,0,0,1-6.044,14.557A19.932,19.932,0,0,1,61.568,62.05a19.793,19.793,0,0,1-14.494-5.983A19.932,19.932,0,0,1,41.091,41.51v-28.8h8.2v28.8A12.214,12.214,0,0,0,61.568,53.785a12.536,12.536,0,0,0,12.4-12.275Z"/><path d="M108.385,12.706V62.05L67.368,25.165V12.706l32.813,29.545V12.706Z"/><path d="M145.454,48.234l8.2,2.714a23.074,23.074,0,0,1-3.947,4.564,25.074,25.074,0,0,1-4.873,3.515,21.334,21.334,0,0,1-5.613,2.221,22.554,22.554,0,0,1-6.167.8,23.668,23.668,0,0,1-17.394-7.278,23.666,23.666,0,0,1-7.278-17.394,23.527,23.527,0,0,1,7.278-17.394,23.336,23.336,0,0,1,17.394-7.278,24.153,24.153,0,0,1,9.622,1.912,25.6,25.6,0,0,1,7.894,5.366l-5.921,5.8a16.376,16.376,0,0,0-28,11.6,16.218,16.218,0,0,0,16.407,16.407,16.79,16.79,0,0,0,6.846-1.419A17.212,17.212,0,0,0,145.454,48.234Zm-12.4-14.927h20.6l-8.2,8.2h-12.4Z"/><path d="M41.091,12.706v8.265H24.684V62.05H16.419V12.706Z"/><rect y="12.706" width="24.672" height="8.258"/><rect x="41.091" width="26.277" height="8.258"/></g></g></svg>