<svg xmlns="http://www.w3.org/2000/svg" viewBox="0 0 118.668 164.632"><title>vertical_logo</title><g id="Layer_2" data-name="Layer 2"><g id="Layer_1-2" data-name="Layer 1"><rect width="118.668" height="164.632"/><path d="M62.191,119.542a19.333,19.333,0,0,1-5.947,14.32,19.6,19.6,0,0,1-14.319,5.885A20.095,20.095,0,0,1,21.78,119.542V91.206h8.07v28.336a12.016,12.016,0,0,0,12.075,12.075,12.333,12.333,0,0,0,12.2-12.075Z" style="fill:#fff"/><path d="M87.98,91.206v48.541L47.63,103.463V91.206L79.91,120.27V91.206Z" style="fill:#fff"/><path d="M88.824,72.124l8.07,2.67a22.671,22.671,0,0,1-3.883,4.49,24.713,24.713,0,0,1-4.794,3.459A20.959,20.959,0,0,1,82.7,84.927a22.2,22.2,0,0,1-6.068.789,23.276,23.276,0,0,1-17.11-7.16,23.28,23.28,0,0,1-7.16-17.111,23.141,23.141,0,0,1,7.16-17.11,22.951,22.951,0,0,1,17.11-7.16,23.754,23.754,0,0,1,9.466,1.881,25.188,25.188,0,0,1,7.767,5.279l-5.825,5.7a16.19,16.19,0,0,0-22.876,0,16.336,16.336,0,0,0,0,22.875,15.662,15.662,0,0,0,11.468,4.672,16.514,16.514,0,0,0,6.735-1.395A16.911,16.911,0,0,0,88.824,72.124Zm-12.2-14.683H96.894l-8.07,8.07h-12.2Z" style="fill:#fff"/><path d="M62.2,24.884v8.131H46.057v40.41h-8.13V24.884Z" style="fill:#fff"/><rect x="21.774" y="24.884" width="24.271" height="8.124" style="fill:#fff"/><rect x="21.78" y="78.707" width="25.85" height="8.124" style="fill:#fff"/></g></g></svg>